/* XPM */
static char * sqrt_xpm[] = {
"113 113 4 1",
" 	g None",
".	g #AAAAAA",
"+	g #000000",
"@	g #555555",
"                                                                                                                 ",
"                                                                                                                 ",
"                                                                                                                 ",
"                                                                                                                 ",
"                                                                                                                 ",
"                                                                                                                 ",
"                                                                                                                 ",
"                                                                                           .++.                  ",
"                                                                                           ++++                  ",
"                                                                                          @++++                  ",
"                                                                                          ++++@                  ",
"                                                                                         @++++                   ",
"                                                                                         ++++@                   ",
"                                                                                        @++++                    ",
"                                                                                        ++++@                    ",
"                                                                                       @++++                     ",
"                                                                                       ++++@                     ",
"                                                                                      .++++.                     ",
"                                                                                      @+++@                      ",
"                                                                                     .++++.                      ",
"                                                                                     @+++@                       ",
"                                                                                    .++++.                       ",
"                                                                                    @+++@                        ",
"                                                                                   .++++.                        ",
"                                                                                   @+++@                         ",
"                                                                                  .++++.                         ",
"                                                                                  @+++@                          ",
"                                                                                 .++++.                          ",
"                                                                                 @+++@                           ",
"                                                                                .++++.                           ",
"                                                                                @+++@                            ",
"                                                                               .++++.                            ",
"                                                                               @++++                             ",
"                                                                               ++++@                             ",
"                                                                              @++++                              ",
"                                                                              ++++@                              ",
"                                                                             @++++                               ",
"                                                                             ++++@                               ",
"                                                                            @++++                                ",
"                                                                            ++++@                                ",
"                                                                           @++++                                 ",
"                                                                           ++++@                                 ",
"                                                                          @++++                                  ",
"                                                                          ++++@                                  ",
"                                                                         @++++                                   ",
"                                                                         ++++@                                   ",
"                                                                        @++++                                    ",
"                                                                        ++++@                                    ",
"                                                                       .++++.                                    ",
"                                                                       @+++@                                     ",
"                                                                      .++++.                                     ",
"                                                                      @+++@                                      ",
"                                                                     .++++.                                      ",
"                                                                     @+++@                                       ",
"                                                                    .++++.                                       ",
"                                                                    @+++@                                        ",
"                                                                   .++++.                                        ",
"                          .@                                       @+++@                                         ",
"                         @++@                                     .++++.                                         ",
"                        @++++                                     @+++@                                          ",
"                      .@+++++@                                   .++++.                                          ",
"                     .++++++++                                   @+++@                                           ",
"                    @+++++++++@                                 .++++.                                           ",
"                  .@++@++++++++                                 @++++                                            ",
"                 .+++..++++++++.                                ++++@                                            ",
"                @++@   @+++++++@                               @++++                                             ",
"               @++@    .++++++++.                              ++++@                                             ",
"              @++.      ++++++++@                             @++++                                              ",
"               @.       @++++++++.                            ++++@                                              ",
"                         ++++++++@                           @++++                                               ",
"                         @++++++++                           ++++@                                               ",
"                          ++++++++@                         @++++                                                ",
"                          @++++++++                         ++++@                                                ",
"                          .++++++++@                       @++++                                                 ",
"                           @++++++++                       ++++@                                                 ",
"                           .++++++++.                     @++++                                                  ",
"                            @+++++++@                     ++++@                                                  ",
"                            .++++++++.                   @++++                                                   ",
"                             ++++++++@                   ++++@                                                   ",
"                             @++++++++.                 .++++.                                                   ",
"                              ++++++++@                 @+++@                                                    ",
"                              @++++++++                .++++.                                                    ",
"                               ++++++++@               @+++@                                                     ",
"                               @++++++++              .++++.                                                     ",
"                               .++++++++@             @+++@                                                      ",
"                                @++++++++            .++++.                                                      ",
"                                .++++++++.           @+++@                                                       ",
"                                 @+++++++@          .++++.                                                       ",
"                                 .++++++++.         @+++@                                                        ",
"                                  @+++++++@        .++++.                                                        ",
"                                  @++++++++.       @+++@                                                         ",
"                                   ++++++++@      .++++.                                                         ",
"                                   @++++++++      @+++@                                                          ",
"                                    ++++++++@    .++++.                                                          ",
"                                    @++++++++    @++++                                                           ",
"                                     ++++++++@   ++++@                                                           ",
"                                     @++++++++  @++++                                                            ",
"                                     .++++++++. ++++@                                                            ",
"                                      @+++++++@@++++                                                             ",
"                                      .++++++++++++@                                                             ",
"                                       @+++++++++++                                                              ",
"                                       @++++++++++@                                                              ",
"                                        ++++++++++                                                               ",
"                                        @++++++++@                                                               ",
"                                         ++++++++                                                                ",
"                                         @++++++@                                                                ",
"                                          ++++++                                                                 ",
"                                          @++++@                                                                 ",
"                                          .++++                                                                  ",
"                                           @++.                                                                  ",
"                                                                                                                 ",
"                                                                                                                 ",
"                                                                                                                 "};
