/* XPM */
static char * sqrt53_xpm[] = {
"50 30 52 1",
" 	g None",
".	g #151515",
"+	g #040404",
"@	g #171717",
"#	g #020202",
"$	g #121212",
"%	g #0C0C0C",
"&	g #242424",
"*	g #1F1F1F",
"=	g #1A1A1A",
"-	g #282828",
";	g #363636",
">	g #0E0E0E",
",	g #424242",
"'	g #393939",
")	g #050505",
"!	g #272727",
"~	g #080808",
"{	g #0D0D0D",
"]	g #0A0A0A",
"^	g #0F0F0F",
"/	g #222222",
"(	g #4D4D4D",
"_	g #141414",
":	g #2F2F2F",
"<	g #202020",
"[	g #3C3C3C",
"}	g #353535",
"|	g #1C1C1C",
"1	g #161616",
"2	g #414141",
"3	g #000000",
"4	g #131313",
"5	g #262626",
"6	g #0B0B0B",
"7	g #3B3B3B",
"8	g #252525",
"9	g #1D1D1D",
"0	g #1B1B1B",
"a	g #010101",
"b	g #060606",
"c	g #4E4E4E",
"d	g #030303",
"e	g #111111",
"f	g #555555",
"g	g #070707",
"h	g #313131",
"i	g #444444",
"j	g #373737",
"k	g #484848",
"l	g #2D2D2D",
"m	g #090909",
"                                                  ",
"                                                  ",
"                                        .+        ",
"                                       @#$        ",
"                                       %&         ",
"                                      *=          ",
"                                     -$           ",
"                                    ;>,           ",
"                                   ')!            ",
"                                   ~{             ",
"                                  %]              ",
"                                 ^~               ",
"                                $)/               ",
"                               (_:                ",
"                               .<                 ",
"           [}                 |1                  ",
"         2*3+4               56                   ",
"       78 ;339              .3                    ",
"           {33!            |3.                    ",
"            033_           a^                     ",
"            ,43bc         #]                      ",
"             >d3]        1.                       ",
"              @336      !ef                       ",
"               03gh    }>i                        ",
"                +3{j  kej                         ",
"                533+  ~%                          ",
"                 la3@1m                           ",
"                  %33g                            ",
"                   ~b@                            ",
"                                                  "};
